HIERARCHY
ROOT RootJoint
{
    OFFSET   0.000000   0.000000   0.000000
    CHANNELS 6 Xposition Yposition Zposition Xrotation Yrotation Zrotation
    JOINT pelvis_lowerback
    {
        OFFSET   0.000000   0.093605   0.000000
        CHANNELS 3 Xrotation Yrotation Zrotation
        JOINT lowerback_torso
        {
            OFFSET   0.000000   0.100000   0.000000
            CHANNELS 3 Xrotation Yrotation Zrotation
            JOINT torso_head
            {
                OFFSET   0.000000   0.282350   0.000000
                CHANNELS 3 Xrotation Yrotation Zrotation
                End Site
                {
                    OFFSET   0.000000   0.192650   0.000000
                }
            }
            JOINT rTorso_Clavicle
            {
                OFFSET  -0.001000   0.157500   0.000000
                CHANNELS 3 Xrotation Yrotation Zrotation
                JOINT rShoulder
                {
                    OFFSET  -0.117647   0.000000   0.000000
                    CHANNELS 3 Xrotation Yrotation Zrotation
                    JOINT rElbow
                    {
                        OFFSET  -0.245000   0.000000   0.000000
                        CHANNELS 3 Xrotation Yrotation Zrotation
                        JOINT rWrist
                        {
                            OFFSET  -0.240000   0.000000   0.000000
                            CHANNELS 3 Xrotation Yrotation Zrotation
                            End Site
                            {
                                OFFSET  -0.116353  -0.002500   0.000000
                            }
                        }
                    }
                }
            }
            JOINT lTorso_Clavicle
            {
                OFFSET   0.001000   0.157500   0.000000
                CHANNELS 3 Xrotation Yrotation Zrotation
                JOINT lShoulder
                {
                    OFFSET   0.117647   0.000000   0.000000
                    CHANNELS 3 Xrotation Yrotation Zrotation
                    JOINT lElbow
                    {
                        OFFSET   0.245000   0.000000   0.000000
                        CHANNELS 3 Xrotation Yrotation Zrotation
                        JOINT lWrist
                        {
                            OFFSET   0.240000   0.000000   0.000000
                            CHANNELS 3 Xrotation Yrotation Zrotation
                            End Site
                            {
                                OFFSET   0.116353  -0.002500   0.000000
                            }
                        }
                    }
                }
            }
        }
    }
    JOINT rHip
    {
        OFFSET  -0.100000  -0.051395   0.000000
        CHANNELS 3 Xrotation Yrotation Zrotation
        JOINT rKnee
        {
            OFFSET   0.000000  -0.410000   0.000000
            CHANNELS 3 Xrotation Yrotation Zrotation
            JOINT rAnkle
            {
                OFFSET   0.000000  -0.390000   0.000000
                CHANNELS 3 Xrotation Yrotation Zrotation
                JOINT rToeJoint
                {
                    OFFSET   0.000000  -0.050000   0.130000
                    CHANNELS 3 Xrotation Yrotation Zrotation
                    End Site
                    {
                        OFFSET  -0.010000   0.002000   0.060000
                    }
                }
            }
        }
    }
    JOINT lHip
    {
        OFFSET   0.100000  -0.051395   0.000000
        CHANNELS 3 Xrotation Yrotation Zrotation
        JOINT lKnee
        {
            OFFSET   0.000000  -0.410000   0.000000
            CHANNELS 3 Xrotation Yrotation Zrotation
            JOINT lAnkle
            {
                OFFSET   0.000000  -0.390000   0.000000
                CHANNELS 3 Xrotation Yrotation Zrotation
                JOINT lToeJoint
                {
                    OFFSET   0.000000  -0.050000   0.130000
                    CHANNELS 3 Xrotation Yrotation Zrotation
                    End Site
                    {
                        OFFSET   0.010000   0.002000   0.060000
                    }
                }
            }
        }
    }
}
MOTION
Frames: 8
Frame Time:   0.008333
 -2.380360   0.352327   4.332085  -7.679886  -8.104196   3.398399  16.491552  -2.441733  -3.367810   2.490586  -1.817209   0.820569   4.416245  -0.388552   1.054107  -0.710668  -2.642164  10.423585  -8.868812  -7.365057  25.497636  -0.000398  52.212320  -0.000041   6.530658   3.529561  -6.953240   3.190295   2.064518  -9.631295   7.358678  -0.916479 -32.725082  -0.008441 -42.233872  -0.002199   8.952459  -3.701847   2.416789 -64.502168   8.580160  -5.431901 149.170088  -0.000647  -0.000114 -70.130001  -1.790328   5.405558  -9.657550  -0.000755  -0.000640 -53.772679   6.610952   5.422553 149.858835  -0.000769   0.000318 -69.994862   1.617435  -1.601943 -28.102428  -0.000002  -0.001113
 -2.380321   0.351312   4.330626  -7.541386  -8.204451   3.495914  16.503661  -2.375591  -3.344482   2.347001  -1.814664   0.771168   4.243058  -0.299512   0.992687  -0.753067  -2.586408  10.454294  -8.800076  -7.327845  25.582530  -0.000549  52.126664   0.000078   6.587808   3.556436  -6.971807   3.127114   2.087004  -9.726688   7.470286  -0.960915 -33.001534  -0.008856 -41.546020  -0.002206   8.977866  -3.732397   2.437550 -65.047273   8.663930  -5.393490 149.270662  -0.000616  -0.000076 -70.114742  -1.762129   5.388579  -9.226836  -0.000745  -0.000701 -54.207653   6.567886   5.378877 149.955921  -0.000762   0.000308 -69.996408   1.548073  -1.691924 -25.456407   0.001777  -0.005621
 -2.380267   0.350248   4.329039  -7.412031  -8.276070   3.597690  16.548171  -2.318727  -3.330970   2.210202  -1.815483   0.724397   4.069179  -0.215193   0.934600  -0.793614  -2.523419  10.510410  -8.731870  -7.289208  25.682221  -0.000707  52.046585   0.000211   6.641669   3.583223  -6.973207   3.065888   2.095237  -9.833209   7.574432  -1.007542 -33.270507  -0.009256 -40.896901  -0.002324   8.998357  -3.712363   2.438305 -65.595816   8.749569  -5.367271 149.368910  -0.000575  -0.000047 -70.102418  -1.735552   5.367227  -8.764776  -0.000720  -0.000698 -54.658970   6.510808   5.337141 150.055943  -0.000742   0.000313 -69.997606   1.504191  -1.783430 -25.558241   0.001382  -0.004350
 -2.380190   0.349136   4.327406  -7.310123  -8.331688   3.693244  16.615347  -2.263153  -3.317725   2.098790  -1.813144   0.679171   3.908563  -0.136329   0.879472  -0.831228  -2.457225  10.578874  -8.665192  -7.249952  25.787411  -0.000847  51.971663   0.000340   6.693238   3.610127  -6.949121   3.007977   2.097300  -9.946916   7.671487  -1.056240 -33.531156  -0.009492 -40.291313  -0.002422   9.017823  -3.687470   2.417651 -66.117585   8.829851  -5.345711 149.468389  -0.000536  -0.000022 -70.092269  -1.718424   5.341944  -8.297444  -0.000676  -0.000693 -55.100892   6.466568   5.304379 150.160246  -0.000704   0.000307 -69.998797   1.461168  -1.873965 -25.549696   0.001108  -0.003490
 -2.380107   0.347983   4.325749  -7.234795  -8.367692   3.779121  16.697607  -2.210166  -3.303191   2.009750  -1.808507   0.638077   3.761396  -0.062587   0.828000  -0.865466  -2.391404  10.654477  -8.600388  -7.211793  25.894110  -0.000958  51.901362   0.000451   6.742694   3.636248  -6.905367   2.954070   2.096715 -10.063312   7.762351  -1.104793 -33.781399  -0.009524 -39.726521  -0.002434   9.036772  -3.666663   2.381213 -66.608468   8.907990  -5.325674 149.569055  -0.000488  -0.000005 -70.084177  -1.700273   5.319220  -7.833708  -0.000624  -0.000613 -55.530302   6.429951   5.278825 150.269866  -0.000652   0.000293 -69.999923   1.423530  -1.962791 -25.456564   0.000934  -0.002874
 -2.380006   0.346784   4.324037  -7.172802  -8.385250   3.860426  16.786750  -2.159359  -3.289205   1.935056  -1.802092   0.599919   3.625440   0.006370   0.779928  -0.897021  -2.327050  10.732463  -8.538326  -7.174946  25.999321  -0.001035  51.835617   0.000541   6.790067   3.661670  -6.849371   2.903688   2.094664 -10.178441   7.847152  -1.152283 -34.019582  -0.009366 -39.199904  -0.002363   9.055140  -3.650942   2.335217 -67.089915   8.986415  -5.308050 149.669942  -0.000436   0.000006 -70.077623  -1.687129   5.298890  -7.359381  -0.000569  -0.000509 -55.923623   6.373755   5.237479 150.329520  -0.000571   0.000265 -70.001270   1.356605  -2.027067 -25.824342   0.000600  -0.001845
 -2.379942   0.345558   4.322364  -7.146846  -8.399857   3.929463  16.887224  -2.105184  -3.279962   1.880497  -1.789630   0.564540   3.501668   0.071067   0.735137  -0.925539  -2.264597  10.814046  -8.478398  -7.139843  26.103601  -0.001078  51.773926   0.000602   6.835678   3.686072  -6.781461   2.858905   2.095211 -10.289957   7.927877  -1.195360 -34.244275  -0.009049 -38.707408  -0.002201   9.072804  -3.633796   2.283536 -67.524893   9.050987  -5.281773 149.775179  -0.000389   0.000024 -70.071989  -1.678791   5.269181  -6.908085  -0.000510  -0.000406 -56.318781   6.341306   5.216899 150.468364  -0.000534   0.000255 -70.001859   1.321691  -2.055716 -25.533418   0.000526  -0.001711
 -2.379951   0.344251   4.320651  -7.092396  -8.415478   4.001251  16.976628  -2.019648  -3.278996   1.797988  -1.770638   0.519680   3.310761   0.130107   0.718931  -0.963299  -2.203701  10.896778  -8.352109  -7.162538  26.190040  -0.001160  51.702240   0.000715   6.884111   3.768408  -6.675286   2.802586   2.066625 -10.351002   8.038932  -1.267090 -34.480493  -0.008979 -38.152823  -0.002222   9.087956  -3.646166   2.200438 -68.012837   9.090184  -5.239564 149.888627  -0.000362   0.000067 -70.066702  -1.704866   5.239389  -6.384779  -0.000583  -0.000476 -56.757151   6.262047   5.215929 150.613124  -0.000520   0.000309 -70.003341   1.241992  -2.114293 -25.215840   0.000472  -0.001744
